<svg width="207" height="212" viewBox="0 0 207 212" fill="none" xmlns="http://www.w3.org/2000/svg">
  <path
    fill-rule="evenodd"
    clip-rule="evenodd"
    d="M6.3528 92.4H67.2788V119.877H20.0725C12.5134 119.877 6.315 113.679 6.315 106.12V92.3622L6.3528 92.4Z"
    fill="#60D28D"
  />
  <path
    fill-rule="evenodd"
    clip-rule="evenodd"
    d="M182.781 33.6661C193.439 33.6661 202.057 42.3213 202.057 52.9417C202.057 63.6 193.402 72.2173 182.781 72.2173C172.123 72.2173 163.506 63.5622 163.506 52.9417C163.506 42.2835 172.161 33.6661 182.781 33.6661Z"
    fill="#60D28D"
  />
  <path
    fill-rule="evenodd"
    clip-rule="evenodd"
    d="M6.35278 198.68V198.189V146.75H32.4315V174.038C32.4315 180.312 37.5339 185.414 43.8079 185.414H98.3087C107.266 185.414 116.375 184.772 125.106 182.844C132.589 181.219 139.959 178.611 146.535 174.68C153.036 170.787 158.592 165.647 163.317 159.789C168.872 152.91 172.765 144.822 175.562 136.507C178.926 126.529 180.173 115.946 180.173 105.439C180.173 101.093 179.946 96.7464 179.417 92.4378H190.227C194.687 92.4378 198.542 94.063 201.641 97.2378C204.778 100.413 206.29 104.305 206.214 108.765C205.95 120.973 204.173 133.181 200.28 144.784C196.501 156.085 191.134 166.857 183.613 176.154C176.961 184.431 169.061 191.575 159.953 197.055C150.92 202.46 140.98 206.088 130.699 208.356C120.079 210.699 109.156 211.531 98.3087 211.531H19.1276C12.0977 211.531 6.35278 205.786 6.35278 198.756V198.68ZM6.35278 96.7086V23.9905C6.35278 11.2157 16.7843 0.822021 29.5213 0.822021H95.8142C107.342 0.822021 119.134 1.16218 130.435 3.54328C143.928 6.34013 156.627 11.7449 167.625 20.1354L151.827 40.885C143.928 34.8756 134.781 31.096 125.106 29.0929C115.846 27.1653 105.225 26.9386 95.8142 26.9386H43.7701C37.4961 26.9386 32.3937 32.0409 32.3937 38.3149V119.953H29.5213C16.7465 119.953 6.35278 109.521 6.35278 96.7842V96.7086Z"
    fill="#60D28D"
  />
  <path
    fill-rule="evenodd"
    clip-rule="evenodd"
    d="M120.041 92.4H190.227V119.877H120.041C112.482 119.877 106.284 113.679 106.284 106.12C106.284 98.5606 112.482 92.3622 120.041 92.3622V92.4Z"
    fill="#60D28D"
  />
  <path
    fill-rule="evenodd"
    clip-rule="evenodd"
    d="M19.3922 127.436C30.0504 127.436 38.6678 136.091 38.6678 146.712C38.6678 157.37 30.0126 165.987 19.3922 165.987C8.7339 165.987 0.116577 157.332 0.116577 146.712C0.116577 136.054 8.7717 127.436 19.3922 127.436Z"
    fill="#60D28D"
  />
  <path
    d="M75.9339 41.6409H102.882C133.118 41.6409 152.545 58.611 161.124 80.3811C164.299 88.4693 165.924 97.3134 165.924 106.157H165.962C165.962 114.926 164.337 123.732 161.124 131.934C152.583 153.666 133.156 170.674 102.882 170.674H75.9339C68.1481 170.674 61.0425 167.499 55.9024 162.321L55.8646 162.283C50.7244 157.143 47.5118 150.038 47.5118 142.252V70.1008C47.5118 62.2772 50.6866 55.1338 55.8646 49.9937C61.0048 44.8535 68.1103 41.6409 75.9717 41.6409H75.9339ZM102.882 68.1732H75.9339C75.4048 68.1732 74.9512 68.4 74.6111 68.7401C74.2709 69.0803 74.0441 69.5716 74.0441 70.063V142.214C74.0441 142.743 74.2331 143.235 74.5733 143.575C74.9134 143.915 75.4048 144.104 75.9339 144.104H102.882C120.457 144.104 131.606 134.542 136.444 122.258C138.409 117.231 139.43 111.713 139.43 106.12H139.468C139.468 100.639 138.447 95.0834 136.444 89.9811C131.606 77.7354 120.457 68.1354 102.882 68.1354V68.1732Z"
    fill="#60D28D"
  />
</svg>
