<svg width="321" height="326" viewBox="0 0 321 326" fill="none" xmlns="http://www.w3.org/2000/svg">
  <path
    d="M167.868 272.115C147.372 272.115 127.337 266.037 110.296 254.65C93.2541 243.264 79.9719 227.079 72.1286 208.144C64.2853 189.208 62.2331 168.372 66.2316 148.271C70.2301 128.169 80.0996 109.704 94.5922 95.2117C109.085 80.7191 127.549 70.8496 147.651 66.8511C167.753 62.8526 188.589 64.9048 207.524 72.7481C226.46 80.5914 242.644 93.8736 254.031 110.915C265.418 127.956 271.495 147.992 271.495 168.487C271.463 195.961 260.535 222.3 241.108 241.727C221.681 261.154 195.342 272.083 167.868 272.115ZM167.868 72.5124C148.885 72.5098 130.328 78.1363 114.543 88.6805C98.7586 99.2248 86.4551 114.213 79.1889 131.75C71.9227 149.287 70.0202 168.585 73.7219 187.203C77.4236 205.821 86.5632 222.923 99.985 236.347C113.407 249.771 130.508 258.913 149.126 262.617C167.743 266.321 187.041 264.422 204.579 257.158C222.117 249.894 237.107 237.593 247.654 221.81C258.2 206.026 263.829 187.47 263.829 168.487C263.912 155.862 261.486 143.346 256.693 131.665C251.9 119.984 244.835 109.372 235.908 100.443C226.981 91.5147 216.369 84.4481 204.689 79.6534C193.009 74.8587 180.493 72.4315 167.868 72.5124Z"
    fill="url(#paint0_linear_3856_5014)"
  />
  <path
    d="M126.531 257.731L119.014 256.16C119.014 255.903 123.985 230.033 113.448 211.288C104.441 195.265 111.172 182.181 120.518 164.086C125.153 155.39 129.339 146.461 133.06 137.336C145.358 106.265 112.838 89.0911 111.389 88.3732L114.802 81.3167C121.709 85.124 127.853 90.1751 132.924 96.2154C143.841 109.353 146.333 124.658 140.103 140.356C136.318 149.701 132.051 158.842 127.317 167.743C118.54 184.782 113.231 195.062 120.125 207.306C132.098 228.679 126.762 256.526 126.531 257.731ZM249.852 231.55L242.268 230.467C242.66 227.69 236.538 220.403 228.804 217.301C225.215 215.866 220.366 214.958 217.617 218.805C216.597 220.319 215.231 221.569 213.631 222.45C212.032 223.331 210.245 223.818 208.42 223.87C197.707 224.25 182.686 211.681 158.09 181.734C148.703 170.316 148.907 156.935 158.645 146.79C169.887 135.074 191.829 130.74 209.084 143.783C214.231 147.67 218.836 149.092 223.156 148.144C232.841 145.991 240.128 132.203 245.437 122.139C247.155 118.591 249.166 115.194 251.451 111.981L257.424 116.776C255.465 119.623 253.726 122.616 252.223 125.728C246.195 137.106 237.96 152.695 224.809 155.621C218.267 157.07 211.414 155.147 204.492 149.891C190.61 139.435 173.097 142.794 164.171 152.086C160.853 155.553 154.175 164.899 164.009 176.858C185.679 203.215 200.578 216.421 208.163 216.137C208.814 216.129 209.452 215.954 210.017 215.629C210.581 215.305 211.053 214.84 211.386 214.281C215.721 208.213 223.116 206.696 231.703 210.123C241.157 213.997 250.976 223.708 249.852 231.55Z"
    fill="url(#paint1_linear_3856_5014)"
  />
  <path
    d="M203.33 125.417C200.431 125.417 197.597 124.557 195.187 122.946C192.776 121.335 190.898 119.046 189.789 116.367C188.68 113.689 188.391 110.741 188.957 107.898C189.524 105.055 190.921 102.444 192.972 100.395C195.023 98.3457 197.635 96.9511 200.479 96.3871C203.323 95.8232 206.27 96.1153 208.947 97.2266C211.625 98.3379 213.913 100.218 215.522 102.63C217.13 105.042 217.987 107.877 217.985 110.776C217.981 114.66 216.436 118.384 213.688 121.13C210.94 123.875 207.214 125.417 203.33 125.417ZM203.33 103.746C201.948 103.746 200.596 104.156 199.447 104.924C198.298 105.692 197.402 106.783 196.873 108.061C196.344 109.338 196.206 110.743 196.475 112.098C196.745 113.454 197.411 114.699 198.388 115.677C199.365 116.654 200.611 117.32 201.966 117.59C203.322 117.859 204.727 117.721 206.004 117.192C207.281 116.663 208.373 115.767 209.141 114.618C209.909 113.469 210.319 112.117 210.319 110.735C210.304 108.89 209.562 107.124 208.253 105.823C206.945 104.522 205.175 103.79 203.33 103.787V103.746Z"
    fill="url(#paint2_linear_3856_5014)"
  />
  <path
    d="M165.357 64.5839C138.454 46.9602 112.143 36.8371 90.5421 35.7982C68.941 34.7592 53.2677 42.8631 45.9739 58.8421C38.6801 74.821 40.1774 97.7737 50.2315 124.109C60.2855 150.445 78.3293 178.679 101.54 204.393C124.751 230.107 151.819 251.852 178.511 266.225C205.202 280.598 230.012 286.789 249.058 283.83C268.103 280.871 280.311 268.928 283.772 249.87C287.232 230.811 281.75 205.713 268.183 178.5"
    stroke="url(#paint3_linear_3856_5014)"
    stroke-width="5.41772"
  />
  <path
    d="M65.3818 71.8411V51.2955L47.5878 41.0227L29.7939 51.2955V71.8411L47.5878 82.1139L65.3818 71.8411Z"
    fill="#E9F7FF"
  />
  <path
    d="M33.7173 124.485C24.2677 154.03 24.9343 185.882 35.612 215.006C46.2896 244.13 66.3692 268.864 92.6767 285.299C118.984 301.735 150.019 308.933 180.875 305.758C211.732 302.582 240.65 289.213 263.058 267.764C285.466 246.314 300.087 218.009 304.609 187.321C309.131 156.633 303.296 125.313 288.026 98.3119C272.757 71.311 248.924 50.1692 220.295 38.2285C191.666 26.2877 159.874 24.2291 129.944 32.378"
    stroke="url(#paint4_linear_3856_5014)"
    stroke-width="4.06329"
    stroke-dasharray="10.84 10.84"
  />
  <path
    d="M252.295 296.676V276.13L234.501 265.858L216.707 276.13V296.676L234.501 306.949L252.295 296.676Z"
    fill="#E9F7FF"
  />
  <path
    d="M268.544 63.7144V43.1688L250.75 32.896L232.956 43.1688V63.7144L250.75 73.9872L268.544 63.7144Z"
    fill="#E9F7FF"
  />
  <defs>
    <linearGradient
      id="paint0_linear_3856_5014"
      x1="167.764"
      y1="272.061"
      x2="167.764"
      y2="64.9029"
      gradientUnits="userSpaceOnUse"
    >
      <stop stop-color="#0066FF" />
      <stop offset="1" stop-color="#00CCFF" />
    </linearGradient>
    <linearGradient
      id="paint1_linear_3856_5014"
      x1="183.238"
      y1="257.685"
      x2="183.238"
      y2="81.3533"
      gradientUnits="userSpaceOnUse"
    >
      <stop stop-color="#0066FF" />
      <stop offset="1" stop-color="#00CCFF" />
    </linearGradient>
    <linearGradient
      id="paint2_linear_3856_5014"
      x1="203.315"
      y1="125.409"
      x2="203.315"
      y2="96.1133"
      gradientUnits="userSpaceOnUse"
    >
      <stop stop-color="#0066FF" />
      <stop offset="1" stop-color="#00CCFF" />
    </linearGradient>
    <linearGradient
      id="paint3_linear_3856_5014"
      x1="108.896"
      y1="212.223"
      x2="211.881"
      y2="112.834"
      gradientUnits="userSpaceOnUse"
    >
      <stop stop-color="#0066FF" />
      <stop offset="1" stop-color="#00CCFF" />
    </linearGradient>
    <linearGradient
      id="paint4_linear_3856_5014"
      x1="166.306"
      y1="306.658"
      x2="166.306"
      y2="27.5619"
      gradientUnits="userSpaceOnUse"
    >
      <stop stop-color="#0066FF" />
      <stop offset="1" stop-color="#00FFFF" />
    </linearGradient>
  </defs>
</svg>
