<svg width="268" height="279" viewBox="0 0 268 279" fill="none" xmlns="http://www.w3.org/2000/svg">
  <path
    d="M136.272 95.827L134.351 97.9266L136.272 95.827ZM136.272 95.827L138.19 97.9267L138.19 97.927C138.27 98.0123 146.902 106.988 166.486 106.988H166.486H166.486H166.486H166.486H166.487H166.487H166.487H166.487H166.487H166.487H166.487H166.487H166.487H166.487H166.487H166.487H166.487H166.487H166.487H166.487H166.488H166.488H166.488H166.488H166.488H166.488H166.488H166.488H166.488H166.488H166.488H166.488H166.488H166.488H166.488H166.489H166.489H166.489H166.489H166.489H166.489H166.489H166.489H166.489C167.233 106.988 167.994 106.977 168.767 106.95C168.767 106.95 168.767 106.95 168.767 106.95L171.458 106.858V147.459C171.458 152.774 170.571 159.305 165.849 165.99C161.127 172.676 152.566 179.521 137.208 185.457L136.269 185.821L135.331 185.457C119.972 179.521 111.411 172.676 106.689 165.99C101.968 159.305 101.081 152.774 101.081 147.459V106.858L103.772 106.95C125.145 107.678 134.254 98.0334 134.351 97.9267L136.272 95.827ZM106.334 112.192L106.284 112.192V112.242V147.459C106.284 150.323 106.285 155.544 110.035 161.536C113.784 167.528 121.278 174.284 136.251 180.231L136.269 180.238L136.288 180.231C151.262 174.284 158.756 167.528 162.505 161.536C166.254 155.544 166.254 150.323 166.254 147.459V147.459V112.242V112.192L166.204 112.192C149.642 112.128 140.115 106.235 136.301 103.193L136.269 103.168L136.238 103.193C132.421 106.232 122.894 112.123 106.334 112.192Z"
    fill="url(#paint0_linear_3856_4975)"
    stroke="url(#paint1_linear_3856_4975)"
    stroke-width="0.100547"
  />
  <path
    d="M127.336 156.559C127.168 156.559 127.002 156.518 126.853 156.44C126.704 156.361 126.576 156.247 126.482 156.108L118.802 144.667C118.667 144.442 118.624 144.174 118.68 143.918C118.737 143.662 118.889 143.437 119.106 143.29C119.324 143.143 119.589 143.085 119.848 143.127C120.106 143.17 120.339 143.31 120.498 143.518L128.205 154.959C128.356 155.186 128.412 155.464 128.36 155.731C128.307 155.999 128.151 156.235 127.924 156.388C127.751 156.505 127.545 156.565 127.336 156.559ZM133.703 157.571H133.648C133.377 157.555 133.122 157.433 132.941 157.231C132.759 157.028 132.664 156.762 132.677 156.491L134.086 130.307C134.093 130.172 134.127 130.04 134.185 129.918C134.243 129.797 134.325 129.688 134.425 129.597C134.525 129.507 134.642 129.438 134.77 129.393C134.897 129.348 135.032 129.328 135.166 129.336C135.301 129.343 135.433 129.377 135.555 129.435C135.676 129.493 135.785 129.574 135.876 129.675C135.966 129.775 136.035 129.892 136.08 130.019C136.125 130.147 136.145 130.281 136.137 130.416L134.729 156.6C134.713 156.862 134.598 157.108 134.408 157.289C134.217 157.469 133.965 157.57 133.703 157.571ZM150.341 142.438C150.183 142.437 150.028 142.4 149.887 142.331C149.746 142.261 149.623 142.159 149.527 142.035L141.109 130.991C141.019 130.885 140.951 130.761 140.911 130.628C140.87 130.495 140.856 130.355 140.871 130.217C140.886 130.079 140.929 129.945 140.997 129.824C141.065 129.703 141.157 129.597 141.268 129.512C141.378 129.428 141.505 129.366 141.64 129.332C141.775 129.298 141.915 129.292 142.052 129.314C142.19 129.336 142.321 129.385 142.439 129.46C142.556 129.534 142.658 129.631 142.736 129.746L151.154 140.79C151.319 141.006 151.391 141.278 151.356 141.548C151.32 141.817 151.178 142.061 150.963 142.226C150.785 142.364 150.566 142.439 150.341 142.438Z"
    fill="#60D28D"
    stroke="url(#paint2_linear_3856_4975)"
    stroke-width="1.59117"
  />
  <path
    d="M116.704 146.034C115.466 146.033 114.255 145.665 113.226 144.975C112.197 144.286 111.395 143.308 110.922 142.163C110.449 141.018 110.326 139.759 110.568 138.544C110.811 137.33 111.408 136.214 112.284 135.339C113.16 134.463 114.277 133.868 115.492 133.626C116.706 133.385 117.966 133.51 119.11 133.984C120.254 134.458 121.232 135.261 121.92 136.291C122.608 137.321 122.975 138.532 122.975 139.771C122.973 141.432 122.312 143.026 121.136 144.2C119.96 145.375 118.366 146.034 116.704 146.034ZM116.704 135.558C115.871 135.559 115.058 135.808 114.366 136.271C113.674 136.735 113.135 137.393 112.817 138.163C112.5 138.933 112.417 139.78 112.58 140.597C112.744 141.413 113.145 142.163 113.735 142.752C114.324 143.34 115.075 143.741 115.892 143.902C116.709 144.064 117.555 143.981 118.325 143.662C119.094 143.343 119.751 142.803 120.214 142.11C120.677 141.418 120.923 140.603 120.923 139.771C120.925 139.216 120.817 138.666 120.606 138.153C120.395 137.64 120.084 137.173 119.692 136.781C119.3 136.388 118.834 136.077 118.321 135.864C117.809 135.652 117.259 135.543 116.704 135.544V135.558ZM129.868 166.372C128.629 166.372 127.418 166.004 126.388 165.316C125.358 164.628 124.555 163.649 124.081 162.505C123.607 161.36 123.483 160.101 123.724 158.886C123.966 157.671 124.563 156.555 125.439 155.679C126.315 154.802 127.431 154.206 128.646 153.964C129.861 153.723 131.121 153.847 132.265 154.321C133.41 154.795 134.388 155.598 135.076 156.628C135.765 157.658 136.132 158.869 136.132 160.108C136.13 161.769 135.47 163.361 134.295 164.535C133.121 165.709 131.529 166.37 129.868 166.372ZM129.868 155.895C129.035 155.895 128.22 156.142 127.528 156.605C126.835 157.068 126.295 157.726 125.976 158.496C125.657 159.265 125.574 160.112 125.737 160.93C125.899 161.747 126.3 162.497 126.889 163.086C127.479 163.676 128.229 164.077 129.046 164.239C129.863 164.402 130.71 164.318 131.48 164C132.25 163.681 132.908 163.141 133.371 162.448C133.833 161.755 134.08 160.941 134.08 160.108C134.079 158.991 133.634 157.921 132.845 157.131C132.055 156.342 130.985 155.897 129.868 155.895ZM138.498 132.672C137.257 132.674 136.044 132.307 135.012 131.618C133.979 130.93 133.175 129.951 132.699 128.804C132.224 127.658 132.099 126.397 132.341 125.18C132.582 123.963 133.18 122.845 134.057 121.967C134.934 121.09 136.052 120.493 137.27 120.251C138.487 120.009 139.748 120.134 140.894 120.609C142.04 121.085 143.019 121.89 143.708 122.922C144.397 123.954 144.763 125.168 144.762 126.408C144.76 128.069 144.1 129.661 142.925 130.836C141.751 132.01 140.159 132.67 138.498 132.672ZM138.498 122.189C137.663 122.188 136.847 122.434 136.152 122.897C135.457 123.36 134.915 124.018 134.595 124.789C134.275 125.56 134.19 126.408 134.352 127.227C134.514 128.046 134.916 128.799 135.505 129.389C136.095 129.98 136.847 130.383 137.666 130.546C138.484 130.709 139.333 130.626 140.104 130.307C140.876 129.988 141.535 129.447 141.999 128.753C142.463 128.059 142.71 127.243 142.71 126.408C142.71 125.291 142.267 124.218 141.477 123.427C140.687 122.636 139.616 122.191 138.498 122.189ZM153.03 152.189C151.791 152.189 150.58 151.822 149.55 151.133C148.519 150.445 147.717 149.467 147.242 148.322C146.768 147.178 146.644 145.918 146.886 144.703C147.128 143.488 147.724 142.372 148.6 141.496C149.476 140.62 150.592 140.023 151.808 139.781C153.023 139.54 154.282 139.664 155.427 140.138C156.571 140.612 157.55 141.415 158.238 142.445C158.926 143.475 159.294 144.686 159.294 145.925C159.292 147.586 158.631 149.178 157.457 150.352C156.283 151.527 154.69 152.187 153.03 152.189ZM153.03 141.713C152.196 141.713 151.382 141.96 150.689 142.423C149.997 142.885 149.457 143.543 149.138 144.313C148.819 145.083 148.736 145.93 148.898 146.747C149.061 147.564 149.462 148.315 150.051 148.904C150.64 149.493 151.391 149.894 152.208 150.057C153.025 150.219 153.872 150.136 154.642 149.817C155.411 149.498 156.069 148.958 156.532 148.265C156.995 147.573 157.242 146.758 157.242 145.925C157.245 145.37 157.138 144.82 156.927 144.306C156.717 143.792 156.407 143.325 156.016 142.931C155.625 142.537 155.159 142.224 154.647 142.01C154.134 141.797 153.585 141.686 153.03 141.685V141.713Z"
    fill="#60D28D"
    stroke="url(#paint3_linear_3856_4975)"
    stroke-width="1.59117"
  />
  <circle cx="133.659" cy="143.205" r="87.5143" stroke="url(#paint4_linear_3856_4975)" stroke-width="2.38675" />
  <circle
    cx="135.248"
    cy="143.205"
    r="119.338"
    stroke="url(#paint5_linear_3856_4975)"
    stroke-width="2.8858"
    stroke-dasharray="7.7 7.7"
  />
  <circle cx="135.252" cy="141.614" r="63.6467" stroke="#ACC7D6" stroke-width="2.38675" />
  <path d="M148.734 24.0167V8.00557L134.867 0L121 8.00557V24.0167L134.867 32.0223L148.734 24.0167Z" fill="#E9F7FF" />
  <path
    d="M148.662 270.648V254.637L134.795 246.631L120.928 254.637V270.648L134.795 278.653L148.662 270.648Z"
    fill="#E9F7FF"
  />
  <path
    d="M268 149.719V133.708L254.133 125.703L240.266 133.708V149.719L254.133 157.725L268 149.719Z"
    fill="url(#paint6_linear_3856_4975)"
  />
  <path
    d="M27.7368 149.719V133.708L13.87 125.703L0.00324821 133.708V149.719L13.87 157.725L27.7368 149.719Z"
    fill="url(#paint7_linear_3856_4975)"
  />
  <line
    x1="134.849"
    y1="31.8235"
    x2="134.849"
    y2="105.017"
    stroke="url(#paint8_linear_3856_4975)"
    stroke-width="2.38675"
  />
  <line
    x1="134.849"
    y1="178.211"
    x2="134.849"
    y2="251.405"
    stroke="url(#paint9_linear_3856_4975)"
    stroke-width="2.38675"
  />
  <line
    x1="167.075"
    y1="140.42"
    x2="240.269"
    y2="140.42"
    stroke="url(#paint10_linear_3856_4975)"
    stroke-width="2.38675"
  />
  <line
    x1="27.049"
    y1="142.012"
    x2="100.243"
    y2="142.012"
    stroke="url(#paint11_linear_3856_4975)"
    stroke-width="2.38675"
  />
  <defs>
    <linearGradient
      id="paint0_linear_3856_4975"
      x1="136.234"
      y1="185.852"
      x2="136.234"
      y2="95.7712"
      gradientUnits="userSpaceOnUse"
    >
      <stop stop-color="#0066FF" />
      <stop offset="1" stop-color="#00CCFF" />
    </linearGradient>
    <linearGradient
      id="paint1_linear_3856_4975"
      x1="136.234"
      y1="185.852"
      x2="136.234"
      y2="95.7712"
      gradientUnits="userSpaceOnUse"
    >
      <stop stop-color="#0066FF" />
      <stop offset="1" stop-color="#00CCFF" />
    </linearGradient>
    <linearGradient
      id="paint2_linear_3856_4975"
      x1="134.994"
      y1="157.564"
      x2="134.994"
      y2="129.307"
      gradientUnits="userSpaceOnUse"
    >
      <stop stop-color="#0066FF" />
      <stop offset="1" stop-color="#00CCFF" />
    </linearGradient>
    <linearGradient
      id="paint3_linear_3856_4975"
      x1="134.846"
      y1="166.36"
      x2="134.846"
      y2="120.14"
      gradientUnits="userSpaceOnUse"
    >
      <stop stop-color="#0066FF" />
      <stop offset="1" stop-color="#00CCFF" />
    </linearGradient>
    <linearGradient
      id="paint4_linear_3856_4975"
      x1="133.571"
      y1="230.674"
      x2="133.571"
      y2="55.7269"
      gradientUnits="userSpaceOnUse"
    >
      <stop stop-color="#0066FF" />
      <stop offset="1" stop-color="#00CCFF" />
    </linearGradient>
    <linearGradient
      id="paint5_linear_3856_4975"
      x1="135.002"
      y1="262.686"
      x2="135.002"
      y2="23.9392"
      gradientUnits="userSpaceOnUse"
    >
      <stop stop-color="#0066FF" />
      <stop offset="1" stop-color="#00FFFF" />
    </linearGradient>
    <linearGradient
      id="paint6_linear_3856_4975"
      x1="240.274"
      y1="141.698"
      x2="267.994"
      y2="141.698"
      gradientUnits="userSpaceOnUse"
    >
      <stop stop-color="#0066FF" />
      <stop offset="1" stop-color="#00CCFF" />
    </linearGradient>
    <linearGradient
      id="paint7_linear_3856_4975"
      x1="0.0104469"
      y1="141.698"
      x2="27.7311"
      y2="141.698"
      gradientUnits="userSpaceOnUse"
    >
      <stop stop-color="#0066FF" />
      <stop offset="1" stop-color="#00CCFF" />
    </linearGradient>
    <linearGradient
      id="paint8_linear_3856_4975"
      x1="132.655"
      y1="68.3836"
      x2="133.655"
      y2="68.3836"
      gradientUnits="userSpaceOnUse"
    >
      <stop stop-color="#0066FF" />
      <stop offset="1" stop-color="#00CCFF" />
    </linearGradient>
    <linearGradient
      id="paint9_linear_3856_4975"
      x1="132.655"
      y1="214.771"
      x2="133.655"
      y2="214.771"
      gradientUnits="userSpaceOnUse"
    >
      <stop stop-color="#0066FF" />
      <stop offset="1" stop-color="#00CCFF" />
    </linearGradient>
    <linearGradient
      id="paint10_linear_3856_4975"
      x1="203.635"
      y1="142.614"
      x2="203.635"
      y2="141.614"
      gradientUnits="userSpaceOnUse"
    >
      <stop stop-color="#0066FF" />
      <stop offset="1" stop-color="#00CCFF" />
    </linearGradient>
    <linearGradient
      id="paint11_linear_3856_4975"
      x1="63.6092"
      y1="144.205"
      x2="63.6092"
      y2="143.205"
      gradientUnits="userSpaceOnUse"
    >
      <stop stop-color="#0066FF" />
      <stop offset="1" stop-color="#00CCFF" />
    </linearGradient>
  </defs>
</svg>
