<svg width="270" height="274" viewBox="0 0 270 274" fill="none" xmlns="http://www.w3.org/2000/svg">
  <g clip-path="url(#clip0_3856_5052)">
    <path
      d="M141.266 225.57C123.691 225.57 106.511 220.358 91.8977 210.594C77.2846 200.83 65.8951 186.952 59.1694 170.714C52.4438 154.477 50.684 136.61 54.1127 119.373C57.5415 102.136 66.0046 86.3022 78.432 73.8748C90.8594 61.4474 106.693 52.9842 123.93 49.5555C141.168 46.1268 159.034 47.8865 175.272 54.6122C191.509 61.3378 205.387 72.7274 215.151 87.3404C224.915 101.954 230.127 119.134 230.127 136.709C230.127 160.276 220.765 182.878 204.1 199.543C187.435 216.207 164.833 225.57 141.266 225.57ZM141.266 53.4019C124.79 53.4019 108.683 58.2877 94.9832 67.4416C81.2834 76.5955 70.6058 89.6063 64.3005 104.829C57.9952 120.051 56.3454 136.801 59.5598 152.961C62.7742 169.121 70.7085 183.965 82.3592 195.616C94.0098 207.266 108.854 215.201 125.014 218.415C141.174 221.629 157.924 219.98 173.146 213.674C188.369 207.369 201.379 196.691 210.533 182.992C219.687 169.292 224.573 153.185 224.573 136.709C224.573 114.614 215.796 93.425 200.173 77.8019C184.55 62.1788 163.36 53.4019 141.266 53.4019Z"
      fill="url(#paint0_linear_3856_5052)"
    />
    <path
      d="M105.153 161.077H115.495L113.825 179.184L113.633 181.268L115.24 179.928L137.869 161.077H176.671C179.78 161.077 182.304 158.556 182.304 155.446V98.2293C182.304 95.1195 179.781 92.5961 176.671 92.5961H105.153C102.041 92.5961 99.52 95.1198 99.52 98.2293V155.446C99.52 158.556 102.041 161.077 105.153 161.077ZM135.545 154.789L120.603 167.601L122.358 155.571L122.503 154.58H121.502H106.019V99.0947H175.805V154.58H136.108H135.788L135.545 154.789ZM121.486 131.141L120.688 131.529L121.096 132.317C124.81 139.481 132.279 144.389 140.912 144.389C149.93 144.389 157.677 139.03 161.199 131.34L161.551 130.572L160.791 130.202L156.507 128.116L155.705 127.725L155.339 128.539C152.863 134.05 147.34 137.891 140.912 137.891C134.836 137.891 129.564 134.462 126.914 129.432L126.523 128.691L125.77 129.057L121.486 131.141Z"
      fill="url(#paint1_linear_3856_5052)"
      stroke="#60D28D"
      stroke-width="1.73077"
    />
  </g>
  <path
    d="M28.3626 104.707C20.4143 129.558 20.975 156.349 29.9562 180.846C38.9374 205.343 55.8268 226.147 77.9546 239.971C100.082 253.795 126.186 259.85 152.14 257.179C178.094 254.508 202.418 243.263 221.266 225.222C240.114 207.18 252.412 183.372 256.215 157.559C260.019 131.747 255.111 105.403 242.267 82.6922C229.424 59.9811 209.378 42.1984 185.297 32.1547C161.217 22.1111 134.476 20.3795 109.301 27.2337"
    stroke="url(#paint2_linear_3856_5052)"
    stroke-width="3.41772"
    stroke-dasharray="9.11 9.11"
  />
  <path
    d="M139.09 54.3229C116.461 39.4992 94.3304 30.9845 76.1612 30.1106C57.9921 29.2367 44.8089 36.0531 38.674 49.4933C32.539 62.9336 33.7984 82.2396 42.2551 104.391C50.7118 126.543 65.8887 150.29 85.4118 171.919C104.935 193.548 127.703 211.838 150.154 223.927C172.604 236.017 193.472 241.225 209.492 238.736C225.512 236.246 235.78 226.201 238.691 210.171C241.602 194.14 236.99 173.029 225.579 150.14"
    stroke="url(#paint3_linear_3856_5052)"
    stroke-width="4.55696"
  />
  <path
    d="M225.883 53.5914V36.3101L210.916 27.6694L195.949 36.3101V53.5914L210.916 62.2321L225.883 53.5914Z"
    fill="#E9F7FF"
  />
  <path
    d="M212.211 249.541V232.26L197.244 223.619L182.277 232.26V249.541L197.244 258.182L212.211 249.541Z"
    fill="#E9F7FF"
  />
  <path
    d="M54.9961 60.4269V43.1455L40.0292 34.5049L25.0623 43.1455V60.4269L40.0292 69.0675L54.9961 60.4269Z"
    fill="#E9F7FF"
  />
  <defs>
    <linearGradient
      id="paint0_linear_3856_5052"
      x1="141.177"
      y1="225.523"
      x2="141.177"
      y2="47.8849"
      gradientUnits="userSpaceOnUse"
    >
      <stop stop-color="#0066FF" />
      <stop offset="1" stop-color="#00CCFF" />
    </linearGradient>
    <linearGradient
      id="paint1_linear_3856_5052"
      x1="140.871"
      y1="179.241"
      x2="140.871"
      y2="93.4793"
      gradientUnits="userSpaceOnUse"
    >
      <stop stop-color="#0066FF" />
      <stop offset="1" stop-color="#00CCFF" />
    </linearGradient>
    <linearGradient
      id="paint2_linear_3856_5052"
      x1="139.885"
      y1="257.937"
      x2="139.885"
      y2="23.1829"
      gradientUnits="userSpaceOnUse"
    >
      <stop stop-color="#0066FF" />
      <stop offset="1" stop-color="#00FFFF" />
    </linearGradient>
    <linearGradient
      id="paint3_linear_3856_5052"
      x1="91.5991"
      y1="178.505"
      x2="178.222"
      y2="94.9074"
      gradientUnits="userSpaceOnUse"
    >
      <stop stop-color="#0066FF" />
      <stop offset="1" stop-color="#00CCFF" />
    </linearGradient>
    <clipPath id="clip0_3856_5052">
      <rect width="177.722" height="177.722" fill="white" transform="translate(52.4062 47.8479)" />
    </clipPath>
  </defs>
</svg>
