<svg width="284" height="314" viewBox="0 0 284 314" fill="none" xmlns="http://www.w3.org/2000/svg">
  <path
    d="M139.99 120.42L109.928 137.779V172.488L139.99 189.845L170.051 172.488V137.779L139.99 120.421V120.42ZM171.839 136.744V173.524L139.99 191.911L108.141 173.524V136.743L139.988 118.357L171.837 136.744H171.839Z"
    fill="#60D28D"
    stroke="url(#paint0_linear_3908_12257)"
    stroke-width="2.50215"
  />
  <path
    d="M139.814 78.666V78.461L139.553 78.6118L73.4175 116.803L73.3305 116.853V116.954V193.312V193.412L73.4175 193.463L139.553 231.65L139.64 231.7L139.727 231.65L205.862 193.463L205.949 193.412V193.312V116.954V116.853L205.862 116.803L139.814 78.666ZM139.636 74.4261L209.533 114.78V195.492L139.64 235.843L69.7467 195.492V114.774L139.636 74.4261Z"
    fill="url(#paint1_linear_3908_12257)"
    stroke="url(#paint2_linear_3908_12257)"
    stroke-width="0.348167"
  />
  <path
    d="M203.202 216.433L217.357 208.261L216.857 207.395L223.435 203.598V196.002H224.435V179.655H223.435V163.309H224.435V146.962H223.435V130.615H224.435V114.269H223.435V106.676L216.853 102.876L217.353 102.009L203.198 93.8374L202.698 94.7034L188.543 86.5313L189.043 85.6653L174.888 77.4932L174.388 78.3592L160.233 70.1872L160.733 69.3211L146.578 61.149L146.078 62.0151L139.5 58.2177L132.923 62.0147L132.423 61.1486L118.269 69.3199L118.769 70.186L104.615 78.3573L104.115 77.4912L89.9605 85.6625L90.4604 86.5286L76.3062 94.6999L75.8063 93.8338L61.6521 102.005L62.152 102.871L55.575 106.668V114.264H54.575V130.612H55.575V146.959H54.575V163.307H55.575V179.654H54.575V196.001H55.575V203.598L62.1524 207.395L61.6525 208.261L75.8075 216.433L76.3074 215.567L90.4624 223.739L89.9625 224.605L104.117 232.777L104.617 231.911L118.772 240.083L118.272 240.949L132.427 249.121L132.927 248.255L139.505 252.053L146.082 248.255L146.582 249.121L160.737 240.949L160.237 240.083L174.392 231.911L174.892 232.777L189.047 224.605L188.547 223.739L202.702 215.567L203.202 216.433Z"
    stroke="url(#paint3_linear_3908_12257)"
    stroke-width="2"
    stroke-dasharray="15.01 15.01"
  />
  <line
    x1="141.91"
    y1="153.484"
    x2="241.489"
    y2="100.928"
    stroke="url(#paint4_linear_3908_12257)"
    stroke-width="3.75322"
  />
  <line
    x1="41.0807"
    y1="100.93"
    x2="142.485"
    y2="154.749"
    stroke="url(#paint5_linear_3908_12257)"
    stroke-width="3.75322"
  />
  <line
    x1="139.657"
    y1="152.631"
    x2="139.657"
    y2="265.228"
    stroke="url(#paint6_linear_3908_12257)"
    stroke-width="3.75322"
  />
  <line
    x1="139.657"
    y1="50.043"
    x2="139.657"
    y2="75.0644"
    stroke="url(#paint7_linear_3908_12257)"
    stroke-width="3.75322"
  />
  <line
    x1="41.8166"
    y1="208.523"
    x2="70.0396"
    y2="193.51"
    stroke="url(#paint8_linear_3908_12257)"
    stroke-width="3.75322"
  />
  <line
    x1="239.426"
    y1="211.801"
    x2="209.398"
    y2="194.286"
    stroke="url(#paint9_linear_3908_12257)"
    stroke-width="3.75322"
  />
  <path
    d="M283.444 101.415V76.2372L261.638 63.6483L239.832 76.2372V101.415L261.638 114.004L283.444 101.415Z"
    fill="url(#paint10_linear_3908_12257)"
  />
  <path
    d="M161.375 300.492V275.314L139.569 262.725L117.763 275.314V300.492L139.569 313.081L161.375 300.492Z"
    fill="url(#paint11_linear_3908_12257)"
  />
  <path
    d="M161.375 37.7668V12.5889L139.569 0L117.763 12.5889V37.7668L139.569 50.3557L161.375 37.7668Z"
    fill="#E9F7FF"
  />
  <path
    d="M43.7761 232.934V207.756L21.9703 195.167L0.164497 207.756V232.934L21.9703 245.523L43.7761 232.934Z"
    fill="#E9F7FF"
  />
  <path
    d="M283.982 235.436V210.259L262.176 197.67L240.371 210.259V235.436L262.176 248.025L283.982 235.436Z"
    fill="#E9F7FF"
  />
  <path
    d="M43.7761 100.32V75.1426L21.9703 62.5537L0.164497 75.1426V100.32L21.9703 112.909L43.7761 100.32Z"
    fill="url(#paint12_linear_3908_12257)"
  />
  <defs>
    <linearGradient
      id="paint0_linear_3908_12257"
      x1="139.958"
      y1="191.892"
      x2="139.958"
      y2="118.372"
      gradientUnits="userSpaceOnUse"
    >
      <stop stop-color="#0066FF" />
      <stop offset="1" stop-color="#00CCFF" />
    </linearGradient>
    <linearGradient
      id="paint1_linear_3908_12257"
      x1="139.57"
      y1="236.002"
      x2="139.57"
      y2="74.2587"
      gradientUnits="userSpaceOnUse"
    >
      <stop stop-color="#0066FF" />
      <stop offset="1" stop-color="#00CCFF" />
    </linearGradient>
    <linearGradient
      id="paint2_linear_3908_12257"
      x1="139.57"
      y1="236.002"
      x2="139.57"
      y2="74.2587"
      gradientUnits="userSpaceOnUse"
    >
      <stop stop-color="#0066FF" />
      <stop offset="1" stop-color="#00CCFF" />
    </linearGradient>
    <linearGradient
      id="paint3_linear_3908_12257"
      x1="139.33"
      y1="253.325"
      x2="139.33"
      y2="57.122"
      gradientUnits="userSpaceOnUse"
    >
      <stop stop-color="#0066FF" />
      <stop offset="1" stop-color="#00FFFF" />
    </linearGradient>
    <linearGradient
      id="paint4_linear_3908_12257"
      x1="192.992"
      y1="129.776"
      x2="192.525"
      y2="128.892"
      gradientUnits="userSpaceOnUse"
    >
      <stop stop-color="#0066FF" />
      <stop offset="1" stop-color="#00CCFF" />
    </linearGradient>
    <linearGradient
      id="paint5_linear_3908_12257"
      x1="90.3834"
      y1="130.353"
      x2="90.852"
      y2="129.47"
      gradientUnits="userSpaceOnUse"
    >
      <stop stop-color="#0066FF" />
      <stop offset="1" stop-color="#00CCFF" />
    </linearGradient>
    <linearGradient
      id="paint6_linear_3908_12257"
      x1="136.78"
      y1="208.873"
      x2="137.78"
      y2="208.873"
      gradientUnits="userSpaceOnUse"
    >
      <stop stop-color="#0066FF" />
      <stop offset="1" stop-color="#00CCFF" />
    </linearGradient>
    <linearGradient
      id="paint7_linear_3908_12257"
      x1="136.78"
      y1="62.5412"
      x2="137.78"
      y2="62.5412"
      gradientUnits="userSpaceOnUse"
    >
      <stop stop-color="#0066FF" />
      <stop offset="1" stop-color="#00CCFF" />
    </linearGradient>
    <linearGradient
      id="paint8_linear_3908_12257"
      x1="57.2648"
      y1="203.564"
      x2="56.7954"
      y2="202.681"
      gradientUnits="userSpaceOnUse"
    >
      <stop stop-color="#0066FF" />
      <stop offset="1" stop-color="#00CCFF" />
    </linearGradient>
    <linearGradient
      id="paint9_linear_3908_12257"
      x1="225.876"
      y1="200.568"
      x2="225.372"
      y2="201.431"
      gradientUnits="userSpaceOnUse"
    >
      <stop stop-color="#0066FF" />
      <stop offset="1" stop-color="#00CCFF" />
    </linearGradient>
    <linearGradient
      id="paint10_linear_3908_12257"
      x1="239.844"
      y1="88.8009"
      x2="283.435"
      y2="88.8009"
      gradientUnits="userSpaceOnUse"
    >
      <stop stop-color="#0066FF" />
      <stop offset="1" stop-color="#00CCFF" />
    </linearGradient>
    <linearGradient
      id="paint11_linear_3908_12257"
      x1="117.775"
      y1="287.878"
      x2="161.366"
      y2="287.878"
      gradientUnits="userSpaceOnUse"
    >
      <stop stop-color="#0066FF" />
      <stop offset="1" stop-color="#00CCFF" />
    </linearGradient>
    <linearGradient
      id="paint12_linear_3908_12257"
      x1="0.175821"
      y1="87.7063"
      x2="43.7671"
      y2="87.7063"
      gradientUnits="userSpaceOnUse"
    >
      <stop stop-color="#0066FF" />
      <stop offset="1" stop-color="#00CCFF" />
    </linearGradient>
  </defs>
</svg>
