<svg width="275" height="259" viewBox="0 0 275 259" fill="none" xmlns="http://www.w3.org/2000/svg">
  <path
    d="M108.71 21.1777L134.617 6.21525C135.663 5.6107 136.851 5.29242 138.059 5.29242C139.268 5.29242 140.455 5.6107 141.502 6.21525L167.411 21.1777C168.458 21.7821 169.327 22.6513 169.931 23.6979C170.535 24.7446 170.854 25.9318 170.854 27.1403V57.0545C170.854 58.2631 170.536 59.4505 169.931 60.4971C169.327 61.5438 168.458 62.4129 167.411 63.0172L141.502 77.9804C140.455 78.5846 139.268 78.9026 138.059 78.9026C136.851 78.9026 135.663 78.5846 134.617 77.9804L108.71 63.0172C107.662 62.4136 106.792 61.5447 106.187 60.498C105.582 59.4513 105.263 58.2636 105.262 57.0545V27.1362C105.264 25.9279 105.583 24.7412 106.188 23.6953C106.793 22.6494 107.663 21.7811 108.71 21.1777ZM138.226 72.3001L164.295 57.0553L164.131 26.8547L137.896 11.8947L111.823 27.1362L111.987 57.3369L137.896 72.296C137.946 72.3253 138.002 72.3408 138.06 72.3412L138.226 72.3001Z"
    fill="#E9F7FF"
  />
  <path
    d="M136.424 37.8698L126.146 31.9359C123.96 30.6735 123.96 27.5181 126.146 26.2557L136.424 20.3217C136.922 20.0338 137.488 19.8821 138.063 19.8821C138.639 19.8821 139.205 20.0338 139.703 20.3217L149.981 26.2557C152.168 27.5181 152.168 30.6735 149.981 31.9359L139.703 37.8698C139.204 38.1573 138.639 38.3085 138.063 38.3085C137.488 38.3085 136.922 38.1573 136.424 37.8698Z"
    fill="#E9F7FF"
  />
  <path
    d="M138.059 31.2424L141.778 29.0967L138.059 26.9494L134.341 29.0967L138.059 31.2424ZM135.223 45.6295V57.4965C135.223 60.0214 132.49 61.6007 130.304 60.3366L120.022 54.4027C119.523 54.1152 119.109 53.7015 118.82 53.2031C118.532 52.7046 118.38 52.1391 118.38 51.5634V39.6955C118.38 37.1706 121.114 35.5913 123.299 36.8554L133.581 42.7893C134.08 43.0768 134.495 43.4907 134.783 43.9893C135.071 44.4879 135.223 45.0536 135.223 45.6295Z"
    fill="#E9F7FF"
  />
  <path
    d="M128.66 47.5229L124.942 45.3756L124.941 49.6695L128.66 51.8152L128.66 47.5229ZM142.539 42.7891L152.816 36.856C155.003 35.5935 157.736 37.1712 157.736 39.6961V51.5632C157.736 52.1389 157.584 52.7045 157.296 53.203C157.008 53.7014 156.593 54.1152 156.094 54.4025L145.817 60.3364C143.63 61.5989 140.898 60.0212 140.898 57.4963V45.6292C140.898 45.0534 141.049 44.4877 141.337 43.9891C141.625 43.4906 142.04 43.0767 142.539 42.7891Z"
    fill="#E9F7FF"
  />
  <path d="M147.458 47.523L147.457 51.8152L151.176 49.6695V45.3756L147.458 47.523Z" fill="#E9F7FF" />
  <path
    d="M201.171 152.304L227.078 137.342C228.125 136.737 229.312 136.419 230.521 136.419C231.73 136.419 232.917 136.737 233.964 137.342L259.873 152.304C260.919 152.908 261.788 153.778 262.393 154.824C262.997 155.871 263.315 157.058 263.315 158.267V188.181C263.315 189.389 262.997 190.577 262.393 191.623C261.789 192.67 260.92 193.539 259.873 194.143L233.964 209.107C232.917 209.711 231.729 210.029 230.521 210.029C229.312 210.029 228.125 209.711 227.078 209.107L201.171 194.143C200.124 193.54 199.254 192.671 198.648 191.624C198.043 190.578 197.724 189.39 197.724 188.181V158.263C197.725 157.054 198.045 155.867 198.65 154.822C199.255 153.776 200.125 152.907 201.171 152.304ZM230.688 203.426L256.757 188.182L256.593 157.981L230.358 143.021L204.285 158.263L204.449 188.463L230.358 203.422C230.407 203.452 230.464 203.467 230.522 203.467L230.688 203.426Z"
    fill="#73FFFD"
  />
  <path
    d="M228.881 168.995L218.603 163.061C216.417 161.799 216.417 158.644 218.603 157.381L228.881 151.447C229.38 151.159 229.945 151.008 230.521 151.008C231.096 151.008 231.662 151.159 232.16 151.447L242.438 157.381C244.625 158.644 244.625 161.799 242.438 163.061L232.16 168.995C231.662 169.283 231.096 169.434 230.521 169.434C229.945 169.434 229.38 169.283 228.881 168.995Z"
    fill="#73FFFD"
  />
  <path
    d="M230.519 162.368L234.237 160.222L230.519 158.075L226.8 160.222L230.519 162.368ZM227.683 176.755V188.622C227.683 191.147 224.949 192.726 222.763 191.462L212.481 185.528C211.982 185.241 211.568 184.827 211.28 184.329C210.992 183.83 210.84 183.265 210.84 182.689V170.821C210.84 168.296 213.573 166.717 215.759 167.981L226.041 173.915C226.54 174.203 226.954 174.616 227.243 175.115C227.531 175.614 227.683 176.179 227.683 176.755Z"
    fill="#73FFFD"
  />
  <path
    d="M221.119 178.648L217.402 176.501L217.401 180.795L221.12 182.941L221.119 178.648ZM234.998 173.915L245.276 167.981C247.463 166.719 250.195 168.297 250.195 170.822V182.689C250.195 183.264 250.043 183.83 249.755 184.328C249.467 184.827 249.053 185.241 248.554 185.528L238.277 191.462C236.09 192.724 233.357 191.147 233.357 188.622V176.755C233.357 176.179 233.509 175.613 233.797 175.115C234.085 174.616 234.499 174.202 234.998 173.915Z"
    fill="#73FFFD"
  />
  <path d="M239.918 178.648L239.917 182.941L243.635 180.795V176.501L239.918 178.648Z" fill="#73FFFD" />
  <path
    d="M12.8867 152.304L38.7935 137.342C39.8401 136.737 41.0275 136.419 42.2361 136.419C43.4448 136.419 44.6322 136.737 45.6788 137.342L71.588 152.304C72.6346 152.908 73.5037 153.778 74.108 154.824C74.7122 155.871 75.0305 157.058 75.0307 158.267V188.181C75.0307 189.389 74.7126 190.577 74.1083 191.623C73.504 192.67 72.6348 193.539 71.588 194.143L45.6788 209.107C44.632 209.711 43.4447 210.029 42.2361 210.029C41.0275 210.029 39.8402 209.711 38.7935 209.107L12.8867 194.143C11.839 193.54 10.9688 192.671 10.3636 191.624C9.75843 190.578 9.43956 189.39 9.43912 188.181V158.263C9.44053 157.054 9.75985 155.867 10.365 154.822C10.9701 153.776 11.8398 152.907 12.8867 152.304ZM42.4028 203.426L68.4721 188.182L68.3079 157.981L42.0728 143.021L16.0002 158.263L16.1643 188.463L42.0728 203.422C42.1226 203.452 42.1792 203.467 42.2369 203.467L42.4028 203.426Z"
    fill="url(#paint0_linear_3856_4929)"
  />
  <path
    d="M40.5963 168.995L30.3184 163.061C28.1325 161.799 28.1325 158.644 30.3184 157.381L40.5963 151.447C41.0947 151.159 41.6602 151.008 42.2359 151.008C42.8116 151.008 43.3771 151.159 43.8756 151.447L54.1534 157.381C56.3402 158.644 56.3402 161.799 54.1534 163.061L43.8756 168.995C43.3769 169.283 42.8115 169.434 42.2359 169.434C41.6604 169.434 41.0949 169.283 40.5963 168.995Z"
    fill="url(#paint1_linear_3856_4929)"
  />
  <path
    d="M42.236 162.368L45.9545 160.222L42.236 158.075L38.5176 160.222L42.236 162.368ZM39.4 176.755V188.622C39.4 191.147 36.6666 192.726 34.4807 191.462L24.1987 185.528C23.6998 185.241 23.2855 184.827 22.9973 184.329C22.7091 183.83 22.5572 183.265 22.557 182.689V170.821C22.557 168.296 25.2904 166.717 27.4764 167.981L37.7583 173.915C38.2573 174.203 38.6717 174.616 38.9599 175.115C39.2481 175.614 39.3999 176.179 39.4 176.755Z"
    fill="url(#paint2_linear_3856_4929)"
  />
  <path
    d="M32.8366 178.648L29.119 176.501L29.1181 180.795L32.8374 182.941L32.8366 178.648ZM46.7155 173.915L56.9933 167.981C59.1801 166.719 61.9127 168.297 61.9127 170.822V182.689C61.9126 183.264 61.7608 183.83 61.4726 184.328C61.1844 184.827 60.77 185.241 60.271 185.528L49.994 191.462C47.8072 192.724 45.0746 191.147 45.0746 188.622V176.755C45.0745 176.179 45.2262 175.613 45.5142 175.115C45.8023 174.616 46.2166 174.202 46.7155 173.915Z"
    fill="url(#paint3_linear_3856_4929)"
  />
  <path
    d="M51.6372 178.648L51.6364 182.941L55.3549 180.795V176.501L51.6372 178.648Z"
    fill="url(#paint4_linear_3856_4929)"
  />
  <line
    x1="122.005"
    y1="71.4176"
    x2="59.8047"
    y2="145.386"
    stroke="url(#paint5_linear_3856_4929)"
    stroke-width="2.52165"
  />
  <line
    x1="159.018"
    y1="69.8336"
    x2="218.238"
    y2="146.209"
    stroke="url(#paint6_linear_3856_4929)"
    stroke-width="2.52165"
  />
  <line
    x1="73.9695"
    y1="175.254"
    x2="198.371"
    y2="175.255"
    stroke="url(#paint7_linear_3856_4929)"
    stroke-width="2.52165"
  />
  <path
    d="M165.715 237.822L139.808 252.785C138.762 253.389 137.574 253.708 136.366 253.708C135.157 253.708 133.97 253.389 132.923 252.785L107.014 237.822C105.967 237.218 105.098 236.349 104.494 235.302C103.889 234.255 103.571 233.068 103.571 231.86L103.571 201.945C103.571 200.737 103.889 199.55 104.493 198.503C105.098 197.456 105.967 196.587 107.014 195.983L132.923 181.02C133.97 180.415 135.157 180.097 136.366 180.097C137.574 180.097 138.762 180.415 139.808 181.02L165.715 195.983C166.763 196.586 167.633 197.455 168.238 198.502C168.843 199.549 169.162 200.736 169.163 201.945V231.864C169.161 233.072 168.842 234.259 168.237 235.305C167.632 236.351 166.762 237.219 165.715 237.822ZM136.199 186.7L110.13 201.945L110.294 232.145L136.529 247.105L162.602 231.864L162.437 201.663L136.529 186.704C136.479 186.675 136.423 186.659 136.365 186.659L136.199 186.7Z"
    fill="#E9F7FF"
  />
  <path
    d="M138.001 221.13L148.279 227.064C150.465 228.327 150.465 231.482 148.279 232.744L138.001 238.678C137.503 238.966 136.937 239.118 136.362 239.118C135.786 239.118 135.22 238.966 134.722 238.678L124.444 232.744C122.257 231.482 122.257 228.327 124.444 227.064L134.722 221.13C135.221 220.843 135.786 220.691 136.362 220.691C136.937 220.691 137.503 220.843 138.001 221.13Z"
    fill="#E9F7FF"
  />
  <path
    d="M136.366 227.758L132.647 229.903L136.366 232.051L140.084 229.903L136.366 227.758ZM139.202 213.371V201.504C139.202 198.979 141.935 197.399 144.121 198.663L154.403 204.597C154.902 204.885 155.316 205.299 155.604 205.797C155.893 206.295 156.045 206.861 156.045 207.437V219.304C156.045 221.829 153.311 223.409 151.125 222.145L140.843 216.211C140.344 215.923 139.93 215.509 139.642 215.011C139.354 214.512 139.202 213.946 139.202 213.371Z"
    fill="#E9F7FF"
  />
  <path
    d="M145.763 211.477L149.481 213.624L149.481 209.331L145.762 207.185L145.763 211.477ZM131.884 216.211L121.606 222.144C119.42 223.406 116.687 221.829 116.687 219.304V207.437C116.687 206.861 116.839 206.295 117.127 205.797C117.415 205.299 117.83 204.885 118.329 204.598L128.606 198.664C130.792 197.401 133.525 198.979 133.525 201.504V213.371C133.525 213.947 133.373 214.512 133.085 215.011C132.797 215.509 132.383 215.923 131.884 216.211Z"
    fill="#E9F7FF"
  />
  <path d="M126.965 211.477L126.965 207.185L123.247 209.331V213.624L126.965 211.477Z" fill="#E9F7FF" />
  <path
    d="M73.251 106.696L47.3442 121.658C46.2976 122.263 45.1103 122.581 43.9016 122.581C42.6929 122.581 41.5056 122.263 40.459 121.658L14.5497 106.696C13.5031 106.092 12.6341 105.222 12.0298 104.176C11.4255 103.129 11.1072 101.942 11.107 100.733L11.107 70.8192C11.107 69.6106 11.4251 68.4233 12.0294 67.3766C12.6338 66.3299 13.503 65.4608 14.5497 64.8566L40.459 49.8933C41.5057 49.2891 42.693 48.9711 43.9016 48.9711C45.1102 48.9711 46.2975 49.2891 47.3442 49.8933L73.251 64.8566C74.2987 65.4602 75.1689 66.329 75.7741 67.3757C76.3793 68.4225 76.6982 69.6101 76.6986 70.8192L76.6986 100.737C76.6972 101.946 76.3779 103.133 75.7727 104.178C75.1676 105.224 74.2979 106.093 73.251 106.696ZM43.735 55.5736L17.6656 70.8184L17.8298 101.019L44.0649 115.979L70.1376 100.737L69.9734 70.5368L44.0649 55.5777C44.0151 55.5484 43.9585 55.5329 43.9008 55.5325L43.735 55.5736Z"
    fill="url(#paint8_linear_3856_4929)"
  />
  <path
    d="M45.5415 90.0047L55.8193 95.9386C58.0052 97.2011 58.0052 100.356 55.8193 101.619L45.5415 107.553C45.043 107.841 44.4775 107.992 43.9018 107.992C43.3261 107.992 42.7606 107.841 42.2622 107.553L31.9843 101.619C29.7976 100.356 29.7976 97.2011 31.9843 95.9386L42.2622 90.0047C42.7608 89.7173 43.3263 89.566 43.9018 89.566C44.4774 89.566 45.0428 89.7173 45.5415 90.0047Z"
    fill="url(#paint9_linear_3856_4929)"
  />
  <path
    d="M43.906 96.6318L40.1875 98.7775L43.906 100.925L47.6244 98.7775L43.906 96.6318ZM46.742 82.2448V70.3778C46.742 67.8529 49.4755 66.2736 51.6614 67.5377L61.9433 73.4716C62.4422 73.759 62.8566 74.1728 63.1447 74.6712C63.4329 75.1696 63.5848 75.7352 63.585 76.3109V88.1787C63.585 90.7037 60.8516 92.283 58.6657 91.0189L48.3837 85.0849C47.8847 84.7974 47.4703 84.3836 47.1821 83.885C46.8939 83.3864 46.7421 82.8207 46.742 82.2448Z"
    fill="url(#paint10_linear_3856_4929)"
  />
  <path
    d="M53.3055 80.3516L57.0231 82.4989L57.0239 78.2051L53.3047 76.0594L53.3055 80.3516ZM39.4266 85.0854L29.1487 91.0185C26.962 92.281 24.2294 90.7033 24.2294 88.1784V76.3114C24.2295 75.7356 24.3812 75.17 24.6694 74.6715C24.9576 74.1731 25.3721 73.7593 25.8711 73.472L36.1481 67.5381C38.3348 66.2757 41.0674 67.8533 41.0674 70.3783V82.2453C41.0675 82.8211 40.9159 83.3868 40.6278 83.8854C40.3398 84.384 39.9255 84.7979 39.4266 85.0854Z"
    fill="url(#paint11_linear_3856_4929)"
  />
  <path
    d="M34.5048 80.3516L34.5056 76.0594L30.7872 78.2051V82.499L34.5048 80.3516Z"
    fill="url(#paint12_linear_3856_4929)"
  />
  <path
    d="M261.538 106.696L235.631 121.658C234.585 122.263 233.397 122.581 232.189 122.581C230.98 122.581 229.793 122.263 228.746 121.658L202.837 106.696C201.79 106.092 200.921 105.222 200.317 104.176C199.713 103.129 199.394 101.942 199.394 100.733V70.8192C199.394 69.6106 199.712 68.4233 200.317 67.3766C200.921 66.3299 201.79 65.4608 202.837 64.8566L228.746 49.8933C229.793 49.2891 230.98 48.9711 232.189 48.9711C233.397 48.9711 234.585 49.2891 235.631 49.8933L261.538 64.8566C262.586 65.4602 263.456 66.329 264.061 67.3757C264.666 68.4225 264.985 69.6101 264.986 70.8192V100.737C264.984 101.946 264.665 103.133 264.06 104.178C263.455 105.224 262.585 106.093 261.538 106.696ZM232.022 55.5736L205.953 70.8184L206.117 101.019L232.352 115.979L258.425 100.737L258.261 70.5368L232.352 55.5777C232.302 55.5484 232.246 55.5329 232.188 55.5325L232.022 55.5736Z"
    fill="url(#paint13_linear_3856_4929)"
  />
  <path
    d="M233.829 90.0047L244.106 95.9386C246.292 97.2011 246.292 100.356 244.106 101.619L233.829 107.553C233.33 107.841 232.765 107.992 232.189 107.992C231.613 107.992 231.048 107.841 230.549 107.553L220.271 101.619C218.085 100.356 218.085 97.2011 220.271 95.9386L230.549 90.0047C231.048 89.7173 231.613 89.566 232.189 89.566C232.764 89.566 233.33 89.7173 233.829 90.0047Z"
    fill="url(#paint14_linear_3856_4929)"
  />
  <path
    d="M232.187 96.6318L228.468 98.7775L232.187 100.925L235.905 98.7775L232.187 96.6318ZM235.023 82.2448V70.3778C235.023 67.8529 237.756 66.2736 239.942 67.5377L250.224 73.4716C250.723 73.759 251.137 74.1728 251.425 74.6712C251.714 75.1696 251.865 75.7352 251.866 76.3109V88.1787C251.866 90.7037 249.132 92.283 246.946 91.0189L236.664 85.0849C236.165 84.7974 235.751 84.3836 235.463 83.885C235.175 83.3864 235.023 82.8207 235.023 82.2448Z"
    fill="url(#paint15_linear_3856_4929)"
  />
  <path
    d="M241.586 80.3516L245.304 82.4989L245.305 78.2051L241.585 76.0594L241.586 80.3516ZM227.707 85.0854L217.429 91.0185C215.243 92.281 212.51 90.7033 212.51 88.1784V76.3114C212.51 75.7356 212.662 75.17 212.95 74.6715C213.238 74.1731 213.653 73.7593 214.152 73.472L224.429 67.5381C226.616 66.2757 229.348 67.8533 229.348 70.3783V82.2453C229.348 82.8211 229.197 83.3868 228.909 83.8854C228.62 84.384 228.206 84.7979 227.707 85.0854Z"
    fill="url(#paint16_linear_3856_4929)"
  />
  <path
    d="M222.788 80.3516L222.788 76.0594L219.07 78.2051V82.499L222.788 80.3516Z"
    fill="url(#paint17_linear_3856_4929)"
  />
  <line
    x1="152.418"
    y1="187.582"
    x2="214.618"
    y2="113.614"
    stroke="url(#paint18_linear_3856_4929)"
    stroke-width="2.52165"
  />
  <line
    x1="115.407"
    y1="189.166"
    x2="56.1868"
    y2="112.791"
    stroke="url(#paint19_linear_3856_4929)"
    stroke-width="2.52165"
  />
  <line
    x1="200.456"
    y1="83.7455"
    x2="76.0543"
    y2="83.7455"
    stroke="url(#paint20_linear_3856_4929)"
    stroke-width="2.52165"
  />
  <defs>
    <linearGradient
      id="paint0_linear_3856_4929"
      x1="42.1674"
      y1="210.073"
      x2="42.1674"
      y2="136.441"
      gradientUnits="userSpaceOnUse"
    >
      <stop stop-color="#D8EEFB" />
      <stop offset="1" stop-color="#00FFFF" />
    </linearGradient>
    <linearGradient
      id="paint1_linear_3856_4929"
      x1="42.2083"
      y1="169.445"
      x2="42.2083"
      y2="151.013"
      gradientUnits="userSpaceOnUse"
    >
      <stop stop-color="#D8EEFB" />
      <stop offset="1" stop-color="#00FFFF" />
    </linearGradient>
    <linearGradient
      id="paint2_linear_3856_4929"
      x1="34.2317"
      y1="191.928"
      x2="34.2317"
      y2="158.085"
      gradientUnits="userSpaceOnUse"
    >
      <stop stop-color="#D8EEFB" />
      <stop offset="1" stop-color="#00FFFF" />
    </linearGradient>
    <linearGradient
      id="paint3_linear_3856_4929"
      x1="45.4817"
      y1="191.921"
      x2="45.4817"
      y2="167.544"
      gradientUnits="userSpaceOnUse"
    >
      <stop stop-color="#D8EEFB" />
      <stop offset="1" stop-color="#00FFFF" />
    </linearGradient>
    <linearGradient
      id="paint4_linear_3856_4929"
      x1="53.4918"
      y1="182.944"
      x2="53.4918"
      y2="176.503"
      gradientUnits="userSpaceOnUse"
    >
      <stop stop-color="#D8EEFB" />
      <stop offset="1" stop-color="#00FFFF" />
    </linearGradient>
    <linearGradient
      id="paint5_linear_3856_4929"
      x1="89.2382"
      y1="106.87"
      x2="90.0038"
      y2="107.514"
      gradientUnits="userSpaceOnUse"
    >
      <stop stop-color="#0066FF" />
      <stop offset="1" stop-color="#00FFFF" />
    </linearGradient>
    <linearGradient
      id="paint6_linear_3856_4929"
      x1="186.78"
      y1="109.328"
      x2="187.571"
      y2="108.715"
      gradientUnits="userSpaceOnUse"
    >
      <stop stop-color="#0066FF" />
      <stop offset="1" stop-color="#00FFFF" />
    </linearGradient>
    <linearGradient
      id="paint7_linear_3856_4929"
      x1="136.042"
      y1="177.516"
      x2="136.042"
      y2="176.516"
      gradientUnits="userSpaceOnUse"
    >
      <stop stop-color="#0066FF" />
      <stop offset="1" stop-color="#00FFFF" />
    </linearGradient>
    <linearGradient
      id="paint8_linear_3856_4929"
      x1="43.9357"
      y1="48.9902"
      x2="43.9357"
      y2="122.566"
      gradientUnits="userSpaceOnUse"
    >
      <stop stop-color="#0066FF" />
      <stop offset="1" stop-color="#00CCFF" />
    </linearGradient>
    <linearGradient
      id="paint9_linear_3856_4929"
      x1="43.9151"
      y1="89.5707"
      x2="43.9151"
      y2="107.989"
      gradientUnits="userSpaceOnUse"
    >
      <stop stop-color="#0066FF" />
      <stop offset="1" stop-color="#00CCFF" />
    </linearGradient>
    <linearGradient
      id="paint10_linear_3856_4929"
      x1="51.898"
      y1="67.1014"
      x2="51.898"
      y2="100.918"
      gradientUnits="userSpaceOnUse"
    >
      <stop stop-color="#0066FF" />
      <stop offset="1" stop-color="#00CCFF" />
    </linearGradient>
    <linearGradient
      id="paint11_linear_3856_4929"
      x1="40.6431"
      y1="67.1001"
      x2="40.6431"
      y2="91.4578"
      gradientUnits="userSpaceOnUse"
    >
      <stop stop-color="#0066FF" />
      <stop offset="1" stop-color="#00CCFF" />
    </linearGradient>
    <linearGradient
      id="paint12_linear_3856_4929"
      x1="32.6483"
      y1="76.0611"
      x2="32.6483"
      y2="82.4976"
      gradientUnits="userSpaceOnUse"
    >
      <stop stop-color="#0066FF" />
      <stop offset="1" stop-color="#00CCFF" />
    </linearGradient>
    <linearGradient
      id="paint13_linear_3856_4929"
      x1="232.223"
      y1="48.9902"
      x2="232.223"
      y2="122.566"
      gradientUnits="userSpaceOnUse"
    >
      <stop stop-color="#0066FF" />
      <stop offset="1" stop-color="#00CCFF" />
    </linearGradient>
    <linearGradient
      id="paint14_linear_3856_4929"
      x1="232.202"
      y1="89.5707"
      x2="232.202"
      y2="107.989"
      gradientUnits="userSpaceOnUse"
    >
      <stop stop-color="#0066FF" />
      <stop offset="1" stop-color="#00CCFF" />
    </linearGradient>
    <linearGradient
      id="paint15_linear_3856_4929"
      x1="240.179"
      y1="67.1014"
      x2="240.179"
      y2="100.918"
      gradientUnits="userSpaceOnUse"
    >
      <stop stop-color="#0066FF" />
      <stop offset="1" stop-color="#00CCFF" />
    </linearGradient>
    <linearGradient
      id="paint16_linear_3856_4929"
      x1="228.924"
      y1="67.1001"
      x2="228.924"
      y2="91.4578"
      gradientUnits="userSpaceOnUse"
    >
      <stop stop-color="#0066FF" />
      <stop offset="1" stop-color="#00CCFF" />
    </linearGradient>
    <linearGradient
      id="paint17_linear_3856_4929"
      x1="220.931"
      y1="76.0611"
      x2="220.931"
      y2="82.4976"
      gradientUnits="userSpaceOnUse"
    >
      <stop stop-color="#0066FF" />
      <stop offset="1" stop-color="#00CCFF" />
    </linearGradient>
    <linearGradient
      id="paint18_linear_3856_4929"
      x1="185.217"
      y1="152.09"
      x2="184.452"
      y2="151.447"
      gradientUnits="userSpaceOnUse"
    >
      <stop stop-color="#0066FF" />
      <stop offset="1" stop-color="#00CCFF" />
    </linearGradient>
    <linearGradient
      id="paint19_linear_3856_4929"
      x1="87.613"
      y1="149.632"
      x2="86.8231"
      y2="150.244"
      gradientUnits="userSpaceOnUse"
    >
      <stop stop-color="#0066FF" />
      <stop offset="1" stop-color="#00CCFF" />
    </linearGradient>
    <linearGradient
      id="paint20_linear_3856_4929"
      x1="138.317"
      y1="81.4849"
      x2="138.317"
      y2="82.4845"
      gradientUnits="userSpaceOnUse"
    >
      <stop stop-color="#0066FF" />
      <stop offset="1" stop-color="#00CCFF" />
    </linearGradient>
  </defs>
</svg>
